<svg width="24" height="24" version="1.1" viewBox="0 0 24 24" xmlns="http://www.w3.org/2000/svg">
 <g stroke-linecap="round">
  <g transform="matrix(-1.8725 -2.0187 2.0192 -1.8729 13.615 70.959)" stroke="#000" stroke-linejoin="round">
   <ellipse transform="matrix(.99997 -.0075453 -.0075407 .99997 0 0)" cx="14.686" cy="12.806" rx=".71095" ry=".71614" stroke-width=".37702"/>
   <g fill="none">
    <path transform="matrix(.99997 -.0075453 -.0075407 .99997 0 0)" d="m16.581 12.591a2.0859 2.1012 0 0 1-1.9387 2.0959" stroke-width=".79123"/>
    <path transform="matrix(.99997 -.0075453 -.0075407 .99997 0 0)" d="m17.849 12.591a3.3535 3.378 0 0 1-3.1106 3.3691" stroke-width=".85031"/>
    <path transform="matrix(.99997 -.0075453 -.0075407 .99997 0 0)" d="m19.119 12.591a4.6239 4.6577 0 0 1-4.4333 4.6538" stroke-width=".78179"/>
   </g>
  </g>
  <path d="m5.5785 19.861 14.345-14.428" fill="#fff" fill-rule="evenodd" stroke="#fff" stroke-width="1.5005" style="paint-order:fill markers stroke"/>
  <path d="m5.2938 19.384 14.345-14.428" fill="none" stroke="#000" stroke-width="1.5005" style="paint-order:stroke markers fill"/>
 </g>
</svg>
